<svg xmlns="http://www.w3.org/2000/svg" width="146.02802mm" height="132.76521mm" viewBox="0 0 146.02802 132.76521"><g style="stroke-width:.0376584"><g style="stroke-width:.0376584"><path d="M0 0a2.6 2.6 0 0 1-.182.62c-.273.59-.655 1.087-1.226 1.42a2.76 2.76 0 0 1-2.842-.018A2.5 2.5 0 0 1-5.363.581c-.232-.737-.224-1.727.194-2.399.136-.22.333-.407.574-.5a.83.83 0 0 1 .743.057c.28.181.33.525.278.831-.066.392-.116.778.028 1.161.046.122.111.24.205.33q.088.082.197.135a.83.83 0 0 0 .491.08c.291-.047.529-.274.658-.538.129-.265.165-.565.179-.859.061-1.284-.246-2.612-.573-3.845a16 16 0 0 0-.104-.38c-.028-.097-.077-.221-.016-.316a.26.26 0 0 1 .114-.088c.19-.076.346.041.473.169.753.757 1.235 1.732 1.565 2.737.123.375.229.756.299 1.144C.04-1.168.096-.56 0 0" style="fill:#008476;fill-opacity:1;fill-rule:nonzero;stroke:none;stroke-width:.0376584" transform="matrix(9.36782 0 0 -9.36782 95.576 78.675)"/></g><g style="stroke-width:.0376584"><path d="M0 0c0 .192-.17.319-.354.313C-.539.307-.712.211-.883.146c-3.308-1.258-7.041-1.497-10.528-.994-.597.086-1.2.206-1.801.3-.375.059-.746.143-1.125.172-.322.024-.725.036-.985-.188-.344-.297-.32-.86-.124-1.233.234-.446.644-.781 1.071-1.035.414-.248.909-.511 1.403-.48q2 .127 3.988.387c2.258.293 4.627.57 6.749 1.446.693.286 1.378.644 1.972 1.106C-.155-.292 0-.157 0 0" style="fill:#008476;fill-opacity:1;fill-rule:nonzero;stroke:none;stroke-width:.0376584" transform="matrix(9.36782 0 0 -9.36782 146.028 23.118)"/></g><g style="stroke-width:.0376584"><path d="M0 0a1.301 1.301 0 0 1 2.604 0 .75.75 0 0 1-.071.312c-.111.236-.237.352-.224.635.016.382-.474.387-.738.387-.288 0-.592-.04-.853-.17A1.305 1.305 0 0 1 0 .03z" style="fill:#d60037;fill-opacity:1;fill-rule:nonzero;stroke:none;stroke-width:.0376584" transform="matrix(9.36782 0 0 -9.36782 57.126 12.497)"/></g></g></svg>